HIERARCHY
ROOT SpineBase
{
  OFFSET 0.000000 0.000000 0.000000
  CHANNELS 6 Xposition Yposition Zposition Zrotation Xrotation Yrotation
  JOINT SpineMid
  {
    OFFSET 0.000000 33.016446 0.000000
    CHANNELS 3 Zrotation Xrotation Yrotation
    JOINT SpineShoulder
    {
      OFFSET -0.728732 24.397463 -0.992933
      CHANNELS 3 Zrotation Xrotation Yrotation
      JOINT Neck
      {
        OFFSET -0.355988 8.081505 -0.745372
        CHANNELS 3 Zrotation Xrotation Yrotation
        JOINT Head
        {
          OFFSET -2.016917 11.900884 3.874818
          CHANNELS 3 Zrotation Xrotation Yrotation
          End Site
          {
            OFFSET 0 0 0
          }
        }
      }
      JOINT ShoulderLeft
      {
        OFFSET -5.321163 -2.288249 13.915564
        CHANNELS 3 Zrotation Xrotation Yrotation
        JOINT ElbowLeft
        {
          OFFSET -2.283729 -32.658353 7.164815
          CHANNELS 3 Zrotation Xrotation Yrotation
          JOINT WristLeft
          {
            OFFSET -7.329144 -24.852888 -1.523799
            CHANNELS 3 Zrotation Xrotation Yrotation
            JOINT HandLeft
            {
              OFFSET -1.040498 1.475420 -1.244556
              CHANNELS 3 Zrotation Xrotation Yrotation
              JOINT HandTipLeft
              {
                OFFSET -0.760274 -6.235901 -2.241204
                CHANNELS 3 Zrotation Xrotation Yrotation
                End Site
                {
                  OFFSET 0 0 0
                }
              }
              JOINT ThumbLeft
              {
                OFFSET -3.413098 1.154388 -3.216169
                CHANNELS 3 Zrotation Xrotation Yrotation
                End Site
                {
                  OFFSET 0 0 0
                }
              }
            }
          }
        }
      }
      JOINT ShoulderRight
      {
        OFFSET -0.445688 -4.634210 -14.574186
        CHANNELS 3 Zrotation Xrotation Yrotation
        JOINT ElbowRight
        {
          OFFSET -2.908066 -25.703662 -3.281227
          CHANNELS 3 Zrotation Xrotation Yrotation
          JOINT WristRight
          {
            OFFSET -9.425067 -22.053430 6.966658
            CHANNELS 3 Zrotation Xrotation Yrotation
            JOINT HandRight
            {
              OFFSET 1.556734 -7.983537 3.654629
              CHANNELS 3 Zrotation Xrotation Yrotation
              JOINT HandTipRight
              {
                OFFSET -1.991350 -7.482059 2.062041
                CHANNELS 3 Zrotation Xrotation Yrotation
                End Site
                {
                  OFFSET 0 0 0
                }
              }
              JOINT ThumbRight
              {
                OFFSET 3.280578 -0.482296 -2.729989
                CHANNELS 3 Zrotation Xrotation Yrotation
                End Site
                {
                  OFFSET 0 0 0
                }
              }
            }
          }
        }
      }
    }
  }
  JOINT HipLeft
  {
    OFFSET -2.528318 -1.236453 3.452835
    CHANNELS 3 Zrotation Xrotation Yrotation
    JOINT KneeLeft
    {
      OFFSET 3.141165 -31.077200 11.640646
      CHANNELS 3 Zrotation Xrotation Yrotation
      JOINT AnkleLeft
      {
        OFFSET 9.924036 -34.810917 -1.505388
        CHANNELS 3 Zrotation Xrotation Yrotation
        JOINT FootLeft
        {
          OFFSET -4.734106 -8.405762 -5.577918
          CHANNELS 3 Zrotation Xrotation Yrotation
          End Site
          {
            OFFSET 0 0 0
          }
        }
      }
    }
  }
  JOINT HipRight
  {
    OFFSET -0.648545 3.163329 -10.785785
    CHANNELS 3 Zrotation Xrotation Yrotation
    JOINT KneeRight
    {
      OFFSET 4.810262 -31.045751 1.487104
      CHANNELS 3 Zrotation Xrotation Yrotation
      JOINT AnkleRight
      {
        OFFSET 7.863149 -34.635426 1.465766
        CHANNELS 3 Zrotation Xrotation Yrotation
        JOINT FootRight
        {
          OFFSET -3.450941 -7.850482 0.813819
          CHANNELS 3 Zrotation Xrotation Yrotation
          End Site
          {
            OFFSET 0 0 0
          }
        }
      }
    }
  }
}
MOTION
Frames: 5
Frame Time: 0.033333
140.836449 74.279290 328.699267 -2.618682 -1.933963 83.073659 0.477965 0.966121 -83.276702 0.026391 0.610092 -0.152902 1.709888 3.635555 1.456563 0.000000 0.000000 0.000000 -7.339926 13.909932 -1.599533 18.124248 15.265923 -4.374959 -179.938092 3.326180 109.367878 -126.142373 27.014940 110.406382 0.000000 0.000000 0.000000 0.000000 0.000000 0.000000 1.156179 -1.355192 0.855873 -1.466675 -10.582720 3.220767 2.317377 29.884963 -1.783297 25.965282 -21.420176 13.841838 0.000000 0.000000 0.000000 0.000000 0.000000 0.000000 2.244648 -3.956959 -82.498955 -0.952112 1.882196 -0.126442 5.724879 2.314786 -7.020991 0.000000 0.000000 0.000000 5.288904 -3.938292 -82.372675 -1.098137 -2.187416 -0.361211 -1.519882 0.062081 -0.561648 0.000000 0.000000 0.000000
140.940861 74.305713 328.640865 -2.547200 -1.839799 82.863278 0.449480 0.994430 -83.060119 0.041688 0.609720 -0.148789 1.295826 3.279606 1.526886 0.000000 0.000000 0.000000 -7.397639 13.842016 -1.620128 18.037031 15.275913 -4.368726 177.462492 4.811686 107.514286 -126.359097 24.829031 108.359607 0.000000 0.000000 0.000000 0.000000 0.000000 0.000000 1.176643 -2.215596 0.912456 -1.973773 -9.092945 2.759231 1.966076 27.681202 -1.730411 23.678644 -21.149408 12.595265 0.000000 0.000000 0.000000 0.000000 0.000000 0.000000 1.908628 -3.737941 -82.392144 -0.594240 2.356040 0.022478 6.655048 -3.251280 -4.628033 0.000000 0.000000 0.000000 5.099893 -3.677497 -82.196929 -0.861231 -2.202600 -0.351366 -2.457841 0.273954 -0.686878 0.000000 0.000000 0.000000
141.051105 74.361229 328.568168 -2.481451 -1.749981 82.484832 0.365742 1.056941 -82.679141 0.033732 0.585314 -0.151060 0.870074 2.875662 1.610487 0.000000 0.000000 0.000000 -7.391806 13.846738 -1.618879 17.893329 15.192412 -4.322771 177.220809 3.387415 108.127116 -123.585283 24.871883 108.585137 0.000000 0.000000 0.000000 0.000000 0.000000 0.000000 1.618243 -3.068912 0.949595 -3.030333 -7.362313 2.236652 0.718771 25.629431 -1.670456 22.953188 -20.313899 12.069611 0.000000 0.000000 0.000000 0.000000 0.000000 0.000000 1.599049 -3.511787 -82.116857 -0.620209 2.347814 0.067334 8.043872 -1.471555 -6.380398 0.000000 0.000000 0.000000 4.931946 -3.375156 -81.852752 -0.608816 -2.179606 -0.331820 -2.831332 0.169928 -0.653092 0.000000 0.000000 0.000000
141.155562 74.438348 328.478964 -2.429568 -1.669766 81.892979 0.269114 1.119294 -82.086213 0.017138 0.556530 -0.155269 0.129625 2.443807 1.805748 0.000000 0.000000 0.000000 -6.781627 14.013663 -1.554199 16.437455 15.356662 -4.524492 -176.030443 -0.001670 112.231925 -119.782178 26.204741 115.420491 0.000000 0.000000 0.000000 0.000000 0.000000 0.000000 2.239890 -3.861774 0.976662 -4.277904 -5.414583 1.672370 0.573663 22.221695 -1.682471 20.549776 -20.219934 11.196010 0.000000 0.000000 0.000000 0.000000 0.000000 0.000000 1.169518 -3.319164 -81.647523 -0.564471 2.627558 0.161131 7.758423 2.230815 -8.285787 0.000000 0.000000 0.000000 4.859911 -3.031002 -81.280611 -0.344163 -2.188267 -0.313216 -3.083394 -0.378266 -0.456285 0.000000 0.000000 0.000000
141.179645 74.509208 328.454097 -2.450919 -1.669126 81.332246 0.145138 1.207621 -81.533191 0.006667 0.533838 -0.164931 -0.693973 1.799723 2.015583 0.000000 0.000000 0.000000 -7.602213 14.301135 -1.598629 17.894984 14.997110 -4.108928 -170.844589 -4.680335 117.911755 -116.057590 29.090692 121.590659 0.000000 0.000000 0.000000 0.000000 0.000000 0.000000 2.815567 -4.501229 1.030078 -5.416987 -3.410033 1.073218 1.033364 18.653574 -1.584826 18.663092 -19.276225 10.455628 0.000000 0.000000 0.000000 0.000000 0.000000 0.000000 0.906809 -3.305484 -81.154865 -0.481510 2.994137 0.235640 6.283102 7.524296 -10.286524 0.000000 0.000000 0.000000 5.046938 -2.890757 -80.693695 -0.305101 -2.272924 -0.317765 -2.906238 -1.393211 -0.073627 0.000000 0.000000 0.000000
